<svg xmlns="http://www.w3.org/2000/svg" width="25.201" height="25.201" viewBox="0 0 25.201 25.201"><g transform="translate(0 10.92)"><path d="M15.961,213.083V209.26A1.262,1.262,0,0,0,14.7,208H2.94a1.262,1.262,0,0,0-1.26,1.26v3.823A2.1,2.1,0,0,0,0,215.14v6.72a.42.42,0,0,0,.42.42H2.1a.42.42,0,0,0,.42-.42V220.6h12.6v1.26a.42.42,0,0,0,.42.42h1.68a.42.42,0,0,0,.42-.42v-6.72A2.1,2.1,0,0,0,15.961,213.083ZM2.52,209.26a.421.421,0,0,1,.42-.42H14.7a.421.421,0,0,1,.42.42v3.78h-.84v-1.68a1.262,1.262,0,0,0-1.26-1.26H10.5a1.262,1.262,0,0,0-1.26,1.26v1.68H8.4v-1.68a1.262,1.262,0,0,0-1.26-1.26H4.62a1.262,1.262,0,0,0-1.26,1.26v1.68H2.52Zm10.92,2.1v1.68H10.08v-1.68a.421.421,0,0,1,.42-.42h2.52A.421.421,0,0,1,13.44,211.36Zm-5.88,0v1.68H4.2v-1.68a.421.421,0,0,1,.42-.42H7.14A.421.421,0,0,1,7.56,211.36Zm9.24,10.08h-.84v-1.26a.42.42,0,0,0-.42-.42H2.1a.42.42,0,0,0-.42.42v1.26H.84v-3.36H16.8Zm0-4.2H.84v-2.1a1.262,1.262,0,0,1,1.26-1.26h13.44a1.262,1.262,0,0,1,1.26,1.26Z" transform="translate(0 -208)"/></g><g transform="translate(18.481 15.961)"><path d="M358.3,304h-5.88a.42.42,0,0,0-.42.42v6.3h.84V308.2h5.04v2.52h.84v-6.3A.42.42,0,0,0,358.3,304Zm-.42,3.36h-5.04v-2.52h5.04Z" transform="translate(-352 -304)"/></g><g transform="translate(21.001 17.641)"><rect width="1.68" height="0.84"/></g><g transform="translate(19.741 9.66)"><path d="M380.176,186.807l-.84-2.52a.42.42,0,0,0-.4-.287h-1.68a.42.42,0,0,0-.4.287l-.84,2.52a.42.42,0,0,0,.4.553h1.26v1.26h-.84v.84h2.52v-.84h-.84v-1.26h1.26a.421.421,0,0,0,.4-.553ZM377,186.52l.56-1.68h1.075l.56,1.68Z" transform="translate(-375.997 -184)"/></g><g transform="translate(0 0)"><g transform="translate(0 0)"><path d="M24.953,5.5,12.772.037a.422.422,0,0,0-.344,0L.248,5.5A.42.42,0,0,0,0,5.88v5.04H.84V6.152L12.6.88l11.76,5.272V10.92h.84V5.88A.42.42,0,0,0,24.953,5.5Z" transform="translate(0 0)"/></g></g><g transform="translate(9.66 3.36)"><path d="M189.839,66.45l-.829.139a2.068,2.068,0,0,1,.029.35,2.1,2.1,0,1,1-1.4-1.98l.28-.792a2.94,2.94,0,1,0,1.96,2.773A2.969,2.969,0,0,0,189.839,66.45Z" transform="translate(-184 -64)"/></g><g transform="translate(11.463 3.483)"><path d="M222.124,66.344l-2.643,2.643-.543-.543-.594.594.84.84a.42.42,0,0,0,.594,0l2.94-2.94Z" transform="translate(-218.344 -66.344)"/></g></svg>